<!-- icon666.com - MILLIONS vector ICONS FREE --><svg id="Layer_1" enable-background="new 0 0 512 512" viewBox="0 0 512 512" xmlns="http://www.w3.org/2000/svg" xmlns:xlink="http://www.w3.org/1999/xlink"><linearGradient id="SVGID_1_" gradientUnits="userSpaceOnUse" x1="22.987" x2="489.013" y1="489.013" y2="22.987"><stop offset="0" stop-color="#fcc60e"></stop><stop offset="1" stop-color="#e92e29"></stop></linearGradient><path d="m365.321 118.002h-218.648c-15.812 0-28.676 12.864-28.676 28.676v136.954c0 15.812 12.864 28.676 28.676 28.676h218.648c15.812 0 28.676-12.864 28.676-28.676v-136.954c.001-15.812-12.864-28.676-28.676-28.676zm-48.579 129.541c4.686 4.687 4.687 12.284 0 16.971-2.343 2.343-5.414 3.515-8.485 3.515s-6.142-1.172-8.485-3.515l-17.239-17.239-17.239 17.239c-2.343 2.343-5.415 3.515-8.485 3.515-3.071 0-6.142-1.171-8.485-3.515-4.687-4.687-4.686-12.284 0-16.971l17.239-17.239-17.239-17.239c-4.686-4.687-4.687-12.284 0-16.971 4.687-4.686 12.284-4.686 16.971 0l17.239 17.239 17.239-17.239c4.687-4.686 12.285-4.687 16.971 0 4.687 4.687 4.686 12.284 0 16.971l-17.239 17.239zm24.21-71.319h-110.432l-22.789 92.728c-1.318 5.364-6.129 9.136-11.653 9.136s-10.335-3.771-11.653-9.136l-25.035-101.864c-1.582-6.437 2.354-12.936 8.79-14.518 6.435-1.58 12.936 2.354 14.517 8.789l13.381 54.447 13.381-54.447c1.318-5.364 6.129-9.136 11.653-9.136h119.839c6.627 0 12 5.372 12 12 .001 6.628-5.372 12.001-11.999 12.001zm92.655-176.224h-355.214c-43.226 0-78.393 35.167-78.393 78.393v355.215c0 43.225 35.167 78.392 78.393 78.392h355.215c43.225 0 78.392-35.167 78.392-78.393v-355.214c0-43.226-35.167-78.393-78.393-78.393zm-74.994 414.112c-2.367 2.581-5.602 3.89-8.848 3.89-2.897 0-5.803-1.043-8.107-3.156-21.542-19.754-52.764-31.084-85.661-31.084s-64.119 11.33-85.661 31.084c-4.883 4.481-12.475 4.152-16.955-.733-4.479-4.885-4.151-12.476.734-16.955 25.916-23.766 63.05-37.396 101.882-37.396s75.966 13.63 101.882 37.396c4.885 4.479 5.214 12.07.734 16.954zm59.385-130.48c0 29.046-23.63 52.676-52.676 52.676h-218.649c-29.045 0-52.676-23.63-52.676-52.676v-136.954c0-29.046 23.63-52.676 52.676-52.676h218.648c29.046 0 52.676 23.63 52.676 52.676v136.954z" fill="url(#SVGID_1_)" style="fill: rgb(41, 146, 199);"></path></svg>